<?xml version="1.0" encoding="UTF-8" standalone="no"?>
<svg
   xmlns:dc="http://purl.org/dc/elements/1.1/"
   xmlns:cc="http://creativecommons.org/ns#"
   xmlns:rdf="http://www.w3.org/1999/02/22-rdf-syntax-ns#"
   xmlns:svg="http://www.w3.org/2000/svg"
   xmlns="http://www.w3.org/2000/svg"
   xmlns:sodipodi="http://sodipodi.sourceforge.net/DTD/sodipodi-0.dtd"
   xmlns:inkscape="http://www.inkscape.org/namespaces/inkscape"
   width="210mm"
   height="297mm"
   viewBox="0 0 210 297"
   version="1.1"
   id="svg8"
   sodipodi:docname="icons.svg"
   inkscape:version="1.0.1 (1.0.1+r73)">
  <defs
     id="defs2" />
  <sodipodi:namedview
     id="base"
     pagecolor="#ffffff"
     bordercolor="#666666"
     borderopacity="1.0"
     inkscape:pageopacity="0.0"
     inkscape:pageshadow="2"
     inkscape:zoom="0.7"
     inkscape:cx="598.0615"
     inkscape:cy="190.84628"
     inkscape:document-units="mm"
     inkscape:current-layer="layer1"
     inkscape:document-rotation="0"
     showgrid="false"
     inkscape:window-width="1366"
     inkscape:window-height="724"
     inkscape:window-x="0"
     inkscape:window-y="0"
     inkscape:window-maximized="0" />
  <metadata
     id="metadata5">
    <rdf:RDF>
      <cc:Work
         rdf:about="">
        <dc:format>image/svg+xml</dc:format>
        <dc:type
           rdf:resource="http://purl.org/dc/dcmitype/StillImage" />
      </cc:Work>
    </rdf:RDF>
  </metadata>
  <g
     inkscape:label="Layer 1"
     inkscape:groupmode="layer"
     id="layer1">
    <rect
       style="fill:#0ab40a;fill-opacity:1;stroke:none;stroke-width:1.291;stroke-linecap:round;stroke-linejoin:round;stroke-miterlimit:4;stroke-dasharray:none;stroke-opacity:1;paint-order:markers fill stroke"
       id="rect914"
       width="37.075603"
       height="37.075603"
       x="38.281731"
       y="39.266796"
       rx="0"
       ry="0" />
    <rect
       style="fill:#0ab40a;fill-opacity:1;stroke:none;stroke-width:1.291;stroke-linecap:round;stroke-linejoin:round;stroke-miterlimit:4;stroke-dasharray:none;stroke-opacity:1;paint-order:markers fill stroke"
       id="rect912"
       width="37.075603"
       height="37.075603"
       x="88.552567"
       y="39.077808"
       rx="0"
       ry="0" />
    <path
       id="path846"
       style="fill:#008000;fill-opacity:1;stroke:#004701;stroke-width:0.548459;stroke-linecap:round;stroke-linejoin:round;stroke-miterlimit:4;stroke-dasharray:none;stroke-opacity:1;paint-order:markers fill stroke"
       inkscape:transform-center-x="-0.049017414"
       inkscape:transform-center-y="-0.0088465756"
       d="m 62.428289,51.271693 a 4.2498188,4.2498188 0 0 0 -4.60615,0.857639 4.2498188,4.2498188 0 0 0 -0.957924,1.392102 4.2498188,4.2498188 0 0 0 -0.904168,-1.412824 4.2498188,4.2498188 0 0 0 -4.573413,-1.017869 4.2498188,4.2498188 0 0 0 0.85764,4.60615 4.2498188,4.2498188 0 0 0 1.392104,0.957925 4.2498188,4.2498188 0 0 0 -1.412785,0.904129 4.2498188,4.2498188 0 0 0 -1.017867,4.573412 4.2498188,4.2498188 0 0 0 4.606149,-0.857637 4.2498188,4.2498188 0 0 0 0.957924,-1.392102 4.2498188,4.2498188 0 0 0 0.904129,1.412861 4.2498188,4.2498188 0 0 0 4.573412,1.017869 4.2498188,4.2498188 0 0 0 -0.857639,-4.606149 4.2498188,4.2498188 0 0 0 -1.392142,-0.957964 4.2498188,4.2498188 0 0 0 1.412861,-0.904129 4.2498188,4.2498188 0 0 0 1.017869,-4.573413 z" />
    <path
       id="path842"
       style="fill:#008000;fill-opacity:1;stroke:#004701;stroke-width:0.548459;stroke-linecap:round;stroke-linejoin:round;stroke-miterlimit:4;stroke-dasharray:none;stroke-opacity:1;paint-order:markers fill stroke"
       d="m 56.666331,64.69196 a 4.2498188,4.2498188 0 0 0 2.582769,-3.909154 4.2498188,4.2498188 0 0 0 -2.582769,-3.909208 4.2498188,4.2498188 0 0 0 -2.582768,3.909208 4.2498188,4.2498188 0 0 0 2.582768,3.909154 z"
       inkscape:transform-center-x="-0.008335682"
       inkscape:transform-center-y="3.899475" />
    <path
       id="path833"
       style="fill:#008000;fill-opacity:1;stroke:#004701;stroke-width:0.548459;stroke-linecap:round;stroke-linejoin:round;stroke-miterlimit:4;stroke-dasharray:none;stroke-opacity:1;paint-order:markers fill stroke"
       d="m 56.64966,49.074649 a 4.2498188,4.2498188 0 0 0 -2.582767,3.909154 4.2498188,4.2498188 0 0 0 2.582767,3.909207 4.2498188,4.2498188 0 0 0 2.582768,-3.909207 4.2498188,4.2498188 0 0 0 -2.582768,-3.909154 z"
       inkscape:transform-center-x="0.0083353936"
       inkscape:transform-center-y="-3.8994747" />
    <path
       id="path840"
       style="fill:#008000;fill-opacity:1;stroke:#004701;stroke-width:0.548459;stroke-linecap:round;stroke-linejoin:round;stroke-miterlimit:4;stroke-dasharray:none;stroke-opacity:1;paint-order:markers fill stroke"
       d="m 64.46665,56.874969 a 4.2498188,4.2498188 0 0 0 -3.909153,-2.582768 4.2498188,4.2498188 0 0 0 -3.909207,2.582768 4.2498188,4.2498188 0 0 0 3.909207,2.582768 4.2498188,4.2498188 0 0 0 3.909153,-2.582768 z"
       inkscape:transform-center-x="-3.8994743"
       inkscape:transform-center-y="-0.0083350356" />
    <path
       id="path844"
       style="fill:#008000;fill-opacity:1;stroke:#004701;stroke-width:0.548459;stroke-linecap:round;stroke-linejoin:round;stroke-miterlimit:4;stroke-dasharray:none;stroke-opacity:1;paint-order:markers fill stroke"
       d="m 48.849341,56.891639 a 4.2498188,4.2498188 0 0 0 3.909153,2.582769 4.2498188,4.2498188 0 0 0 3.909208,-2.582769 4.2498188,4.2498188 0 0 0 -3.909208,-2.582767 4.2498188,4.2498188 0 0 0 -3.909153,2.582767 z"
       inkscape:transform-center-x="3.8994743"
       inkscape:transform-center-y="0.008336012" />
    <path
       id="path855"
       style="fill:#008000;fill-opacity:1;stroke:#004701;stroke-width:0.870699;stroke-linecap:round;stroke-linejoin:round;stroke-miterlimit:4;stroke-dasharray:none;stroke-opacity:1;paint-order:markers fill stroke"
       inkscape:transform-center-x="-0.077817201"
       inkscape:transform-center-y="-0.014043381"
       d="m 115.64035,48.837721 a 6.7466985,6.7466985 0 0 0 -7.31246,1.361525 6.7466985,6.7466985 0 0 0 -1.52074,2.209999 6.7466985,6.7466985 0 0 0 -1.4354,-2.242895 6.7466985,6.7466985 0 0 0 -7.260438,-1.615894 6.7466985,6.7466985 0 0 0 1.361525,7.312383 6.7466985,6.7466985 0 0 0 2.210013,1.52073 6.7466985,6.7466985 0 0 0 -2.242846,1.43533 6.7466985,6.7466985 0 0 0 -1.615888,7.26041 6.7466985,6.7466985 0 0 0 7.312404,-1.361521 6.7466985,6.7466985 0 0 0 1.52074,-2.209999 6.7466985,6.7466985 0 0 0 1.43534,2.242953 6.7466985,6.7466985 0 0 0 7.26049,1.615895 6.7466985,6.7466985 0 0 0 -1.36155,-7.312383 6.7466985,6.7466985 0 0 0 -2.21008,-1.520792 6.7466985,6.7466985 0 0 0 2.24299,-1.435328 6.7466985,6.7466985 0 0 0 1.6159,-7.260413 z" />
    <path
       id="path857"
       style="fill:#008000;fill-opacity:1;stroke:#004701;stroke-width:1.00648;stroke-linecap:round;stroke-linejoin:round;stroke-miterlimit:4;stroke-dasharray:none;stroke-opacity:1;paint-order:markers fill stroke"
       d="m 107.03935,71.59139 a 7.7988375,7.7988375 0 0 0 4.73967,-7.173684 7.7988375,7.7988375 0 0 0 -4.73967,-7.173784 7.7988375,7.7988375 0 0 0 -4.73966,7.173784 7.7988375,7.7988375 0 0 0 4.73966,7.173684 z"
       inkscape:transform-center-x="-0.015296989"
       inkscape:transform-center-y="7.1559212" />
    <path
       id="path865"
       style="fill:#008000;fill-opacity:1;stroke:#004701;stroke-width:1.00648;stroke-linecap:round;stroke-linejoin:round;stroke-miterlimit:4;stroke-dasharray:none;stroke-opacity:1;paint-order:markers fill stroke"
       d="m 92.694357,57.277029 a 7.7988375,7.7988375 0 0 0 7.173684,4.739637 7.7988375,7.7988375 0 0 0 7.173819,-4.739637 7.7988375,7.7988375 0 0 0 -7.173819,-4.739633 7.7988375,7.7988375 0 0 0 -7.173684,4.739633 z"
       inkscape:transform-center-x="7.1559218"
       inkscape:transform-center-y="0.015296484" />
    <path
       id="path869"
       style="fill:#008000;fill-opacity:1;stroke:#004701;stroke-width:1.00648;stroke-linecap:round;stroke-linejoin:round;stroke-miterlimit:4;stroke-dasharray:none;stroke-opacity:1;paint-order:markers fill stroke"
       d="m 121.35383,57.246439 a 7.7988375,7.7988375 0 0 0 -7.17374,-4.739636 7.7988375,7.7988375 0 0 0 -7.17385,4.739636 7.7988375,7.7988375 0 0 0 7.17385,4.739634 7.7988375,7.7988375 0 0 0 7.17374,-4.739634 z"
       inkscape:transform-center-x="-7.1559235"
       inkscape:transform-center-y="-0.015296516" />
    <path
       id="path867"
       style="fill:#008000;fill-opacity:1;stroke:#004701;stroke-width:1.00648;stroke-linecap:round;stroke-linejoin:round;stroke-miterlimit:4;stroke-dasharray:none;stroke-opacity:1;paint-order:markers fill stroke"
       d="m 107.00876,42.932079 a 7.7988375,7.7988375 0 0 0 -4.73967,7.173684 7.7988375,7.7988375 0 0 0 4.73967,7.173783 7.7988375,7.7988375 0 0 0 4.73968,-7.173783 7.7988375,7.7988375 0 0 0 -4.73968,-7.173684 z"
       inkscape:transform-center-x="0.015295856"
       inkscape:transform-center-y="-7.155922" />
    <path
       id="path871"
       style="fill:#008000;fill-opacity:1;stroke:#004701;stroke-width:0.793817;stroke-linecap:round;stroke-linejoin:round;stroke-miterlimit:4;stroke-dasharray:none;stroke-opacity:1;paint-order:markers fill stroke"
       d="m 100.84232,61.139066 a 5.8479547,7.9049834 0 0 0 0.047,-0.03461 5.8479547,7.9049834 0 0 0 0.0626,-0.04729 5.8479547,7.9049834 0 0 0 0.0623,-0.04816 5.8479547,7.9049834 0 0 0 0.0617,-0.0493 5.8479547,7.9049834 0 0 0 0.0614,-0.05018 5.8479547,7.9049834 0 0 0 0.0606,-0.05104 5.8479547,7.9049834 0 0 0 0.0606,-0.05249 5.8479547,7.9049834 0 0 0 0.0597,-0.05306 5.8479547,7.9049834 0 0 0 0.0594,-0.05421 5.8479547,7.9049834 0 0 0 0.0588,-0.05536 5.8479547,7.9049834 0 0 0 0.0585,-0.05623 5.8479547,7.9049834 0 0 0 0.0577,-0.05709 5.8479547,7.9049834 0 0 0 0.0574,-0.05796 5.8479547,7.9049834 0 0 0 0.0568,-0.05911 5.8479547,7.9049834 0 0 0 0.0562,-0.05998 5.8479547,7.9049834 0 0 0 0.0556,-0.06085 5.8479547,7.9049834 0 0 0 0.0554,-0.062 5.8479547,7.9049834 0 0 0 0.0545,-0.06257 5.8479547,7.9049834 0 0 0 0.0539,-0.06373 5.8479547,7.9049834 0 0 0 0.0536,-0.0646 5.8479547,7.9049834 0 0 0 0.0528,-0.06546 5.8479547,7.9049834 0 0 0 0.0522,-0.06603 5.8479547,7.9049834 0 0 0 0.0516,-0.06719 5.8479547,7.9049834 0 0 0 0.051,-0.06806 5.8479547,7.9049834 0 0 0 0.0505,-0.06892 5.8479547,7.9049834 0 0 0 0.0499,-0.06949 5.8479547,7.9049834 0 0 0 0.049,-0.07065 5.8479547,7.9049834 0 0 0 0.0487,-0.07123 5.8479547,7.9049834 0 0 0 0.0479,-0.07209 5.8479547,7.9049834 0 0 0 0.047,-0.07296 5.8479547,7.9049834 0 0 0 0.0467,-0.07353 5.8479547,7.9049834 0 0 0 0.0458,-0.0744 5.8479547,7.9049834 0 0 0 0.0453,-0.07526 5.8479547,7.9049834 0 0 0 0.0444,-0.07583 5.8479547,7.9049834 0 0 0 0.0438,-0.07671 5.8479547,7.9049834 0 0 0 0.043,-0.07728 5.8479547,7.9049834 0 0 0 0.0424,-0.07815 5.8479547,7.9049834 0 0 0 0.0418,-0.07872 5.8479547,7.9049834 0 0 0 0.0409,-0.07959 5.8479547,7.9049834 0 0 0 0.0404,-0.07988 5.8479547,7.9049834 0 0 0 0.0395,-0.08103 5.8479547,7.9049834 0 0 0 0.0389,-0.08132 5.8479547,7.9049834 0 0 0 0.0378,-0.08218 5.8479547,7.9049834 0 0 0 0.0375,-0.08247 5.8479547,7.9049834 0 0 0 0.0366,-0.08334 5.8479547,7.9049834 0 0 0 0.0358,-0.08391 5.8479547,7.9049834 0 0 0 0.0349,-0.08449 5.8479547,7.9049834 0 0 0 0.0343,-0.08507 5.8479547,7.9049834 0 0 0 0.0335,-0.08564 5.8479547,7.9049834 0 0 0 0.0329,-0.08622 5.8479547,7.9049834 0 0 0 0.032,-0.0868 5.8479547,7.9049834 0 0 0 0.0311,-0.08709 5.8479547,7.9049834 0 0 0 0.0303,-0.08795 5.8479547,7.9049834 0 0 0 0.0294,-0.08824 5.8479547,7.9049834 0 0 0 0.0288,-0.08853 5.8479547,7.9049834 0 0 0 0.008,-0.02653 5.8479547,7.9049834 0 0 0 -0.0285,-0.08881 5.8479547,7.9049834 0 0 0 -0.0294,-0.08853 5.8479547,7.9049834 0 0 0 -0.03,-0.08766 5.8479547,7.9049834 0 0 0 -0.0309,-0.08766 5.8479547,7.9049834 0 0 0 -0.0317,-0.0868 5.8479547,7.9049834 0 0 0 -0.0326,-0.08622 5.8479547,7.9049834 0 0 0 -0.0332,-0.08593 5.8479547,7.9049834 0 0 0 -0.034,-0.08507 5.8479547,7.9049834 0 0 0 -0.0349,-0.08478 5.8479547,7.9049834 0 0 0 -0.0355,-0.0842 5.8479547,7.9049834 0 0 0 -0.0363,-0.08334 5.8479547,7.9049834 0 0 0 -0.0372,-0.08276 5.8479547,7.9049834 0 0 0 -0.0378,-0.08247 5.8479547,7.9049834 0 0 0 -0.0386,-0.08161 5.8479547,7.9049834 0 0 0 -0.0392,-0.08103 5.8479547,7.9049834 0 0 0 -0.0401,-0.08017 5.8479547,7.9049834 0 0 0 -0.0407,-0.07959 5.8479547,7.9049834 0 0 0 -0.0415,-0.07901 5.8479547,7.9049834 0 0 0 -0.0424,-0.07844 5.8479547,7.9049834 0 0 0 -0.043,-0.07757 5.8479547,7.9049834 0 0 0 -0.0435,-0.07671 5.8479547,7.9049834 0 0 0 -0.0441,-0.07613 5.8479547,7.9049834 0 0 0 -0.045,-0.07555 5.8479547,7.9049834 0 0 0 -0.0459,-0.07468 5.8479547,7.9049834 0 0 0 -0.0464,-0.07382 5.8479547,7.9049834 0 0 0 -0.047,-0.07296 5.8479547,7.9049834 0 0 0 -0.0476,-0.07238 5.8479547,7.9049834 0 0 0 -0.0482,-0.07152 5.8479547,7.9049834 0 0 0 -0.049,-0.07065 5.8479547,7.9049834 0 0 0 -0.0496,-0.07007 5.8479547,7.9049834 0 0 0 -0.0502,-0.06892 5.8479547,7.9049834 0 0 0 -0.051,-0.06834 5.8479547,7.9049834 0 0 0 -0.0513,-0.06748 5.8479547,7.9049834 0 0 0 -0.0522,-0.06632 5.8479547,7.9049834 0 0 0 -0.0528,-0.06575 5.8479547,7.9049834 0 0 0 -0.0531,-0.06488 5.8479547,7.9049834 0 0 0 -0.0539,-0.06401 5.8479547,7.9049834 0 0 0 -0.0545,-0.06287 5.8479547,7.9049834 0 0 0 -0.0551,-0.062 5.8479547,7.9049834 0 0 0 -0.0554,-0.06142 5.8479547,7.9049834 0 0 0 -0.0562,-0.06027 5.8479547,7.9049834 0 0 0 -0.0565,-0.05911 5.8479547,7.9049834 0 0 0 -0.0571,-0.05854 5.8479547,7.9049834 0 0 0 -0.058,-0.05738 5.8479547,7.9049834 0 0 0 -0.0583,-0.05652 5.8479547,7.9049834 0 0 0 -0.0585,-0.05536 5.8479547,7.9049834 0 0 0 -0.0594,-0.05451 5.8479547,7.9049834 0 0 0 -0.0597,-0.05363 5.8479547,7.9049834 0 0 0 -0.06,-0.05248 5.8479547,7.9049834 0 0 0 -0.0609,-0.05162 5.8479547,7.9049834 0 0 0 -0.0611,-0.05046 5.8479547,7.9049834 0 0 0 -0.0614,-0.0496 5.8479547,7.9049834 0 0 0 -0.062,-0.04844 5.8479547,7.9049834 0 0 0 -0.0626,-0.04758 5.8479547,7.9049834 0 0 0 -0.0629,-0.04643 5.8479547,7.9049834 0 0 0 -0.0591,-0.0421 7.3509787,7.1373057 0 0 0 -1.15489,3.840094 7.3509787,7.1373057 0 0 0 1.21112,3.924007 z" />
    <path
       id="path889"
       style="fill:#008000;fill-opacity:1;stroke:#004701;stroke-width:0.793817;stroke-linecap:round;stroke-linejoin:round;stroke-miterlimit:4;stroke-dasharray:none;stroke-opacity:1;paint-order:markers fill stroke"
       d="m 110.76861,63.332621 a 7.9049834,5.8479547 0 0 0 -0.0464,-0.05825 7.9049834,5.8479547 0 0 0 -0.0502,-0.06113 7.9049834,5.8479547 0 0 0 -0.0513,-0.06085 7.9049834,5.8479547 0 0 0 -0.0522,-0.06056 7.9049834,5.8479547 0 0 0 -0.0533,-0.05969 7.9049834,5.8479547 0 0 0 -0.0543,-0.0594 7.9049834,5.8479547 0 0 0 -0.0551,-0.05882 7.9049834,5.8479547 0 0 0 -0.0562,-0.05854 7.9049834,5.8479547 0 0 0 -0.0571,-0.05768 7.9049834,5.8479547 0 0 0 -0.0582,-0.05738 7.9049834,5.8479547 0 0 0 -0.0588,-0.05681 7.9049834,5.8479547 0 0 0 -0.0599,-0.05623 7.9049834,5.8479547 0 0 0 -0.0612,-0.05565 7.9049834,5.8479547 0 0 0 -0.0617,-0.05536 7.9049834,5.8479547 0 0 0 -0.0629,-0.05451 7.9049834,5.8479547 0 0 0 -0.0635,-0.05392 7.9049834,5.8479547 0 0 0 -0.0646,-0.05363 7.9049834,5.8479547 0 0 0 -0.0654,-0.05277 7.9049834,5.8479547 0 0 0 -0.0663,-0.05219 7.9049834,5.8479547 0 0 0 -0.0671,-0.05162 7.9049834,5.8479547 0 0 0 -0.0678,-0.05104 7.9049834,5.8479547 0 0 0 -0.069,-0.05046 7.9049834,5.8479547 0 0 0 -0.0698,-0.04989 7.9049834,5.8479547 0 0 0 -0.0703,-0.04902 7.9049834,5.8479547 0 0 0 -0.0713,-0.04873 7.9049834,5.8479547 0 0 0 -0.0721,-0.04787 7.9049834,5.8479547 0 0 0 -0.073,-0.047 7.9049834,5.8479547 0 0 0 -0.0735,-0.04672 7.9049834,5.8479547 0 0 0 -0.0744,-0.04585 7.9049834,5.8479547 0 0 0 -0.0753,-0.04499 7.9049834,5.8479547 0 0 0 -0.0758,-0.0447 7.9049834,5.8479547 0 0 0 -0.0767,-0.04383 7.9049834,5.8479547 0 0 0 -0.0776,-0.04296 7.9049834,5.8479547 0 0 0 -0.0779,-0.04239 7.9049834,5.8479547 0 0 0 -0.0787,-0.04181 7.9049834,5.8479547 0 0 0 -0.0796,-0.04095 7.9049834,5.8479547 0 0 0 -0.0802,-0.04037 7.9049834,5.8479547 0 0 0 -0.0807,-0.03951 7.9049834,5.8479547 0 0 0 -0.0813,-0.03864 7.9049834,5.8479547 0 0 0 -0.0822,-0.03807 7.9049834,5.8479547 0 0 0 -0.0828,-0.03749 7.9049834,5.8479547 0 0 0 -0.0833,-0.03662 7.9049834,5.8479547 0 0 0 -0.0839,-0.03575 7.9049834,5.8479547 0 0 0 -0.0845,-0.03489 7.9049834,5.8479547 0 0 0 -0.0851,-0.03432 7.9049834,5.8479547 0 0 0 -0.0856,-0.03345 7.9049834,5.8479547 0 0 0 -0.0862,-0.03287 7.9049834,5.8479547 0 0 0 -0.0865,-0.03172 7.9049834,5.8479547 0 0 0 -0.0874,-0.03115 7.9049834,5.8479547 0 0 0 -0.0877,-0.03056 7.9049834,5.8479547 0 0 0 -0.0882,-0.02942 7.9049834,5.8479547 0 0 0 -0.0888,-0.02883 7.9049834,5.8479547 0 0 0 -0.0265,-0.0084 7.9049834,5.8479547 0 0 0 -0.0888,0.02855 7.9049834,5.8479547 0 0 0 -0.0885,0.02942 7.9049834,5.8479547 0 0 0 -0.0877,0.02999 7.9049834,5.8479547 0 0 0 -0.0877,0.03085 7.9049834,5.8479547 0 0 0 -0.0868,0.03172 7.9049834,5.8479547 0 0 0 -0.0862,0.03259 7.9049834,5.8479547 0 0 0 -0.0859,0.03316 7.9049834,5.8479547 0 0 0 -0.0851,0.03402 7.9049834,5.8479547 0 0 0 -0.0848,0.03489 7.9049834,5.8479547 0 0 0 -0.0842,0.03547 7.9049834,5.8479547 0 0 0 -0.0833,0.03634 7.9049834,5.8479547 0 0 0 -0.0828,0.0372 7.9049834,5.8479547 0 0 0 -0.0825,0.03777 7.9049834,5.8479547 0 0 0 -0.0816,0.03864 7.9049834,5.8479547 0 0 0 -0.081,0.03921 7.9049834,5.8479547 0 0 0 -0.0802,0.04008 7.9049834,5.8479547 0 0 0 -0.0796,0.04066 7.9049834,5.8479547 0 0 0 -0.079,0.04153 7.9049834,5.8479547 0 0 0 -0.0784,0.04238 7.9049834,5.8479547 0 0 0 -0.0776,0.04296 7.9049834,5.8479547 0 0 0 -0.0767,0.04354 7.9049834,5.8479547 0 0 0 -0.0761,0.04412 7.9049834,5.8479547 0 0 0 -0.0756,0.04499 7.9049834,5.8479547 0 0 0 -0.0747,0.04585 7.9049834,5.8479547 0 0 0 -0.0738,0.04643 7.9049834,5.8479547 0 0 0 -0.073,0.047 7.9049834,5.8479547 0 0 0 -0.0724,0.04757 7.9049834,5.8479547 0 0 0 -0.0715,0.04816 7.9049834,5.8479547 0 0 0 -0.0707,0.04902 7.9049834,5.8479547 0 0 0 -0.0701,0.0496 7.9049834,5.8479547 0 0 0 -0.0689,0.05017 7.9049834,5.8479547 0 0 0 -0.0683,0.05104 7.9049834,5.8479547 0 0 0 -0.0675,0.05132 7.9049834,5.8479547 0 0 0 -0.0663,0.05219 7.9049834,5.8479547 0 0 0 -0.0657,0.05277 7.9049834,5.8479547 0 0 0 -0.0649,0.05306 7.9049834,5.8479547 0 0 0 -0.064,0.05392 7.9049834,5.8479547 0 0 0 -0.0629,0.05449 7.9049834,5.8479547 0 0 0 -0.062,0.05508 7.9049834,5.8479547 0 0 0 -0.0614,0.05536 7.9049834,5.8479547 0 0 0 -0.0603,0.05624 7.9049834,5.8479547 0 0 0 -0.0591,0.05652 7.9049834,5.8479547 0 0 0 -0.0585,0.05709 7.9049834,5.8479547 0 0 0 -0.0574,0.05796 7.9049834,5.8479547 0 0 0 -0.0565,0.05796 7.9049834,5.8479547 0 0 0 -0.0554,0.05882 7.9049834,5.8479547 0 0 0 -0.0545,0.0594 7.9049834,5.8479547 0 0 0 -0.0536,0.05969 7.9049834,5.8479547 0 0 0 -0.0525,0.05998 7.9049834,5.8479547 0 0 0 -0.0516,0.06085 7.9049834,5.8479547 0 0 0 -0.0505,0.06113 7.9049834,5.8479547 0 0 0 -0.0496,0.06142 7.9049834,5.8479547 0 0 0 -0.047,0.06027 7.3509787,7.1373057 0 0 0 3.70744,0.97437 7.3509787,7.1373057 0 0 0 3.78646,-1.019642 z" />
    <path
       id="path887"
       style="fill:#008000;fill-opacity:1;stroke:#004701;stroke-width:0.793817;stroke-linecap:round;stroke-linejoin:round;stroke-miterlimit:4;stroke-dasharray:none;stroke-opacity:1;paint-order:markers fill stroke"
       d="m 113.19172,53.394862 a 5.8479547,7.9049834 0 0 0 -0.0331,0.02451 5.8479547,7.9049834 0 0 0 -0.0625,0.047 5.8479547,7.9049834 0 0 0 -0.0623,0.04816 5.8479547,7.9049834 0 0 0 -0.0617,0.04932 5.8479547,7.9049834 0 0 0 -0.0612,0.05017 5.8479547,7.9049834 0 0 0 -0.0609,0.05132 5.8479547,7.9049834 0 0 0 -0.0603,0.05219 5.8479547,7.9049834 0 0 0 -0.0599,0.05335 5.8479547,7.9049834 0 0 0 -0.0595,0.05421 5.8479547,7.9049834 0 0 0 -0.0588,0.05536 5.8479547,7.9049834 0 0 0 -0.0585,0.05594 5.8479547,7.9049834 0 0 0 -0.0576,0.05738 5.8479547,7.9049834 0 0 0 -0.0574,0.05796 5.8479547,7.9049834 0 0 0 -0.0568,0.05911 5.8479547,7.9049834 0 0 0 -0.0562,0.05998 5.8479547,7.9049834 0 0 0 -0.0557,0.06085 5.8479547,7.9049834 0 0 0 -0.0553,0.062 5.8479547,7.9049834 0 0 0 -0.0545,0.06257 5.8479547,7.9049834 0 0 0 -0.0539,0.06373 5.8479547,7.9049834 0 0 0 -0.0536,0.0646 5.8479547,7.9049834 0 0 0 -0.0528,0.06546 5.8479547,7.9049834 0 0 0 -0.0522,0.06603 5.8479547,7.9049834 0 0 0 -0.0516,0.06719 5.8479547,7.9049834 0 0 0 -0.0511,0.06806 5.8479547,7.9049834 0 0 0 -0.0505,0.06891 5.8479547,7.9049834 0 0 0 -0.0499,0.06949 5.8479547,7.9049834 0 0 0 -0.049,0.07065 5.8479547,7.9049834 0 0 0 -0.0485,0.07123 5.8479547,7.9049834 0 0 0 -0.0479,0.07209 5.8479547,7.9049834 0 0 0 -0.0473,0.07296 5.8479547,7.9049834 0 0 0 -0.0464,0.07353 5.8479547,7.9049834 0 0 0 -0.0459,0.07439 5.8479547,7.9049834 0 0 0 -0.0453,0.07526 5.8479547,7.9049834 0 0 0 -0.0447,0.07584 5.8479547,7.9049834 0 0 0 -0.0435,0.07671 5.8479547,7.9049834 0 0 0 -0.0432,0.07728 5.8479547,7.9049834 0 0 0 -0.0424,0.07815 5.8479547,7.9049834 0 0 0 -0.0418,0.07872 5.8479547,7.9049834 0 0 0 -0.041,0.07959 5.8479547,7.9049834 0 0 0 -0.0401,0.08017 5.8479547,7.9049834 0 0 0 -0.0399,0.08074 5.8479547,7.9049834 0 0 0 -0.0386,0.08132 5.8479547,7.9049834 0 0 0 -0.038,0.08218 5.8479547,7.9049834 0 0 0 -0.0372,0.08276 5.8479547,7.9049834 0 0 0 -0.0366,0.08334 5.8479547,7.9049834 0 0 0 -0.0357,0.08391 5.8479547,7.9049834 0 0 0 -0.0352,0.08449 5.8479547,7.9049834 0 0 0 -0.0344,0.08507 5.8479547,7.9049834 0 0 0 -0.0335,0.08564 5.8479547,7.9049834 0 0 0 -0.0325,0.08593 5.8479547,7.9049834 0 0 0 -0.032,0.0868 5.8479547,7.9049834 0 0 0 -0.0312,0.08737 5.8479547,7.9049834 0 0 0 -0.0303,0.08766 5.8479547,7.9049834 0 0 0 -0.0297,0.08824 5.8479547,7.9049834 0 0 0 -0.0285,0.08881 5.8479547,7.9049834 0 0 0 -0.008,0.02596 5.8479547,7.9049834 0 0 0 0.0285,0.08881 5.8479547,7.9049834 0 0 0 0.0294,0.08853 5.8479547,7.9049834 0 0 0 0.03,0.08766 5.8479547,7.9049834 0 0 0 0.0309,0.08766 5.8479547,7.9049834 0 0 0 0.0317,0.0868 5.8479547,7.9049834 0 0 0 0.0325,0.08622 5.8479547,7.9049834 0 0 0 0.0331,0.08593 5.8479547,7.9049834 0 0 0 0.034,0.08507 5.8479547,7.9049834 0 0 0 0.0349,0.08478 5.8479547,7.9049834 0 0 0 0.0355,0.0842 5.8479547,7.9049834 0 0 0 0.0363,0.08334 5.8479547,7.9049834 0 0 0 0.0372,0.08276 5.8479547,7.9049834 0 0 0 0.0378,0.08247 5.8479547,7.9049834 0 0 0 0.0386,0.08161 5.8479547,7.9049834 0 0 0 0.0393,0.08102 5.8479547,7.9049834 0 0 0 0.0401,0.08017 5.8479547,7.9049834 0 0 0 0.0407,0.07959 5.8479547,7.9049834 0 0 0 0.0415,0.07901 5.8479547,7.9049834 0 0 0 0.0424,0.07844 5.8479547,7.9049834 0 0 0 0.043,0.07757 5.8479547,7.9049834 0 0 0 0.0435,0.07671 5.8479547,7.9049834 0 0 0 0.0442,0.07612 5.8479547,7.9049834 0 0 0 0.045,0.07555 5.8479547,7.9049834 0 0 0 0.0459,0.07469 5.8479547,7.9049834 0 0 0 0.0464,0.07382 5.8479547,7.9049834 0 0 0 0.047,0.07296 5.8479547,7.9049834 0 0 0 0.0475,0.07238 5.8479547,7.9049834 0 0 0 0.0481,0.07152 5.8479547,7.9049834 0 0 0 0.049,0.07065 5.8479547,7.9049834 0 0 0 0.0496,0.07007 5.8479547,7.9049834 0 0 0 0.0502,0.06892 5.8479547,7.9049834 0 0 0 0.0511,0.06834 5.8479547,7.9049834 0 0 0 0.0513,0.06747 5.8479547,7.9049834 0 0 0 0.0522,0.06633 5.8479547,7.9049834 0 0 0 0.0528,0.06574 5.8479547,7.9049834 0 0 0 0.053,0.06489 5.8479547,7.9049834 0 0 0 0.0539,0.06401 5.8479547,7.9049834 0 0 0 0.0545,0.06287 5.8479547,7.9049834 0 0 0 0.0551,0.062 5.8479547,7.9049834 0 0 0 0.0554,0.06142 5.8479547,7.9049834 0 0 0 0.0562,0.06027 5.8479547,7.9049834 0 0 0 0.0565,0.05911 5.8479547,7.9049834 0 0 0 0.0571,0.05854 5.8479547,7.9049834 0 0 0 0.058,0.05738 5.8479547,7.9049834 0 0 0 0.058,0.05652 5.8479547,7.9049834 0 0 0 0.0588,0.05536 5.8479547,7.9049834 0 0 0 0.0595,0.05449 5.8479547,7.9049834 0 0 0 0.0597,0.05363 5.8479547,7.9049834 0 0 0 0.0599,0.05248 5.8479547,7.9049834 0 0 0 0.0608,0.05162 5.8479547,7.9049834 0 0 0 0.0612,0.05046 5.8479547,7.9049834 0 0 0 0.0614,0.0496 5.8479547,7.9049834 0 0 0 0.062,0.04845 5.8479547,7.9049834 0 0 0 0.0625,0.04758 5.8479547,7.9049834 0 0 0 0.0236,0.0173 7.3509787,7.1373057 0 0 0 1.16961,-3.862298 7.3509787,7.1373057 0 0 0 -1.14163,-3.820196 z" />
    <path
       id="path885"
       style="fill:#0aa30a;fill-opacity:1;stroke:#004701;stroke-width:0.793817;stroke-linecap:round;stroke-linejoin:round;stroke-miterlimit:4;stroke-dasharray:none;stroke-opacity:1;paint-order:markers fill stroke"
       d="m 103.86464,50.751463 a 7.3509787,7.1373057 0 0 0 -3.07856,2.623502 5.8479547,7.9049834 0 0 1 0.0591,0.0421 5.8479547,7.9049834 0 0 1 0.0629,0.04643 5.8479547,7.9049834 0 0 1 0.0626,0.04758 5.8479547,7.9049834 0 0 1 0.062,0.04844 5.8479547,7.9049834 0 0 1 0.0614,0.0496 5.8479547,7.9049834 0 0 1 0.0611,0.05046 5.8479547,7.9049834 0 0 1 0.0609,0.05162 5.8479547,7.9049834 0 0 1 0.06,0.05249 5.8479547,7.9049834 0 0 1 0.0597,0.05363 5.8479547,7.9049834 0 0 1 0.0594,0.05451 5.8479547,7.9049834 0 0 1 0.0585,0.05536 5.8479547,7.9049834 0 0 1 0.0583,0.05652 5.8479547,7.9049834 0 0 1 0.058,0.05738 5.8479547,7.9049834 0 0 1 0.0571,0.05854 5.8479547,7.9049834 0 0 1 0.0565,0.05911 5.8479547,7.9049834 0 0 1 0.0562,0.06027 5.8479547,7.9049834 0 0 1 0.0554,0.06142 5.8479547,7.9049834 0 0 1 0.0551,0.062 5.8479547,7.9049834 0 0 1 0.0545,0.06287 5.8479547,7.9049834 0 0 1 0.0539,0.06401 5.8479547,7.9049834 0 0 1 0.0531,0.06488 5.8479547,7.9049834 0 0 1 0.0528,0.06575 5.8479547,7.9049834 0 0 1 0.0522,0.06632 5.8479547,7.9049834 0 0 1 0.0513,0.06748 5.8479547,7.9049834 0 0 1 0.051,0.06834 5.8479547,7.9049834 0 0 1 0.0502,0.06892 5.8479547,7.9049834 0 0 1 0.0496,0.07007 5.8479547,7.9049834 0 0 1 0.049,0.07065 5.8479547,7.9049834 0 0 1 0.0482,0.07152 5.8479547,7.9049834 0 0 1 0.0476,0.07238 5.8479547,7.9049834 0 0 1 0.047,0.07296 5.8479547,7.9049834 0 0 1 0.0464,0.07382 5.8479547,7.9049834 0 0 1 0.0459,0.07469 5.8479547,7.9049834 0 0 1 0.045,0.07555 5.8479547,7.9049834 0 0 1 0.0441,0.07613 5.8479547,7.9049834 0 0 1 0.0435,0.07671 5.8479547,7.9049834 0 0 1 0.043,0.07757 5.8479547,7.9049834 0 0 1 0.0424,0.07844 5.8479547,7.9049834 0 0 1 0.0415,0.07901 5.8479547,7.9049834 0 0 1 0.0407,0.07959 5.8479547,7.9049834 0 0 1 0.0401,0.08017 5.8479547,7.9049834 0 0 1 0.0392,0.08102 5.8479547,7.9049834 0 0 1 0.0386,0.08161 5.8479547,7.9049834 0 0 1 0.0378,0.08247 5.8479547,7.9049834 0 0 1 0.0372,0.08275 5.8479547,7.9049834 0 0 1 0.0363,0.08334 5.8479547,7.9049834 0 0 1 0.0355,0.0842 5.8479547,7.9049834 0 0 1 0.0349,0.08478 5.8479547,7.9049834 0 0 1 0.034,0.08507 5.8479547,7.9049834 0 0 1 0.0332,0.08593 5.8479547,7.9049834 0 0 1 0.0326,0.08622 5.8479547,7.9049834 0 0 1 0.0317,0.0868 5.8479547,7.9049834 0 0 1 0.0309,0.08766 5.8479547,7.9049834 0 0 1 0.03,0.08766 5.8479547,7.9049834 0 0 1 0.0294,0.08853 5.8479547,7.9049834 0 0 1 0.0285,0.08882 5.8479547,7.9049834 0 0 1 -0.008,0.02653 5.8479547,7.9049834 0 0 1 -0.0288,0.08853 5.8479547,7.9049834 0 0 1 -0.0294,0.08824 5.8479547,7.9049834 0 0 1 -0.0303,0.08795 5.8479547,7.9049834 0 0 1 -0.0311,0.08708 5.8479547,7.9049834 0 0 1 -0.032,0.0868 5.8479547,7.9049834 0 0 1 -0.0329,0.08622 5.8479547,7.9049834 0 0 1 -0.0335,0.08564 5.8479547,7.9049834 0 0 1 -0.0343,0.08507 5.8479547,7.9049834 0 0 1 -0.0349,0.08449 5.8479547,7.9049834 0 0 1 -0.0358,0.08391 5.8479547,7.9049834 0 0 1 -0.0366,0.08334 5.8479547,7.9049834 0 0 1 -0.0375,0.08247 5.8479547,7.9049834 0 0 1 -0.0378,0.08218 5.8479547,7.9049834 0 0 1 -0.0389,0.08132 5.8479547,7.9049834 0 0 1 -0.0395,0.08103 5.8479547,7.9049834 0 0 1 -0.0404,0.07988 5.8479547,7.9049834 0 0 1 -0.0409,0.07959 5.8479547,7.9049834 0 0 1 -0.0418,0.07872 5.8479547,7.9049834 0 0 1 -0.0424,0.07815 5.8479547,7.9049834 0 0 1 -0.043,0.07728 5.8479547,7.9049834 0 0 1 -0.0438,0.07671 5.8479547,7.9049834 0 0 1 -0.0444,0.07583 5.8479547,7.9049834 0 0 1 -0.0453,0.07526 5.8479547,7.9049834 0 0 1 -0.0459,0.0744 5.8479547,7.9049834 0 0 1 -0.0467,0.07353 5.8479547,7.9049834 0 0 1 -0.047,0.07296 5.8479547,7.9049834 0 0 1 -0.0479,0.07209 5.8479547,7.9049834 0 0 1 -0.0487,0.07123 5.8479547,7.9049834 0 0 1 -0.049,0.07065 5.8479547,7.9049834 0 0 1 -0.0499,0.0695 5.8479547,7.9049834 0 0 1 -0.0505,0.06892 5.8479547,7.9049834 0 0 1 -0.051,0.06806 5.8479547,7.9049834 0 0 1 -0.0516,0.06719 5.8479547,7.9049834 0 0 1 -0.0522,0.06603 5.8479547,7.9049834 0 0 1 -0.0528,0.06546 5.8479547,7.9049834 0 0 1 -0.0536,0.0646 5.8479547,7.9049834 0 0 1 -0.0539,0.06373 5.8479547,7.9049834 0 0 1 -0.0545,0.06257 5.8479547,7.9049834 0 0 1 -0.0554,0.062 5.8479547,7.9049834 0 0 1 -0.0557,0.06085 5.8479547,7.9049834 0 0 1 -0.0562,0.05998 5.8479547,7.9049834 0 0 1 -0.0568,0.05911 5.8479547,7.9049834 0 0 1 -0.0574,0.05796 5.8479547,7.9049834 0 0 1 -0.0577,0.05709 5.8479547,7.9049834 0 0 1 -0.0585,0.05623 5.8479547,7.9049834 0 0 1 -0.0588,0.05536 5.8479547,7.9049834 0 0 1 -0.0594,0.05421 5.8479547,7.9049834 0 0 1 -0.0597,0.05306 5.8479547,7.9049834 0 0 1 -0.0606,0.05248 5.8479547,7.9049834 0 0 1 -0.0605,0.05104 5.8479547,7.9049834 0 0 1 -0.0614,0.05018 5.8479547,7.9049834 0 0 1 -0.0617,0.0493 5.8479547,7.9049834 0 0 1 -0.0623,0.04815 5.8479547,7.9049834 0 0 1 -0.0626,0.04729 5.8479547,7.9049834 0 0 1 -0.047,0.03461 7.3509787,7.1373057 0 0 0 2.43234,2.238828 7.9049834,5.8479547 0 0 1 0.047,-0.06027 7.9049834,5.8479547 0 0 1 0.0496,-0.06142 7.9049834,5.8479547 0 0 1 0.0505,-0.06113 7.9049834,5.8479547 0 0 1 0.0516,-0.06085 7.9049834,5.8479547 0 0 1 0.0525,-0.05998 7.9049834,5.8479547 0 0 1 0.0536,-0.05969 7.9049834,5.8479547 0 0 1 0.0545,-0.0594 7.9049834,5.8479547 0 0 1 0.0554,-0.05882 7.9049834,5.8479547 0 0 1 0.0565,-0.05796 7.9049834,5.8479547 0 0 1 0.0574,-0.05796 7.9049834,5.8479547 0 0 1 0.0585,-0.05709 7.9049834,5.8479547 0 0 1 0.0591,-0.05651 7.9049834,5.8479547 0 0 1 0.0603,-0.05624 7.9049834,5.8479547 0 0 1 0.0614,-0.05536 7.9049834,5.8479547 0 0 1 0.062,-0.05508 7.9049834,5.8479547 0 0 1 0.0629,-0.05449 7.9049834,5.8479547 0 0 1 0.064,-0.05392 7.9049834,5.8479547 0 0 1 0.0649,-0.05306 7.9049834,5.8479547 0 0 1 0.0657,-0.05277 7.9049834,5.8479547 0 0 1 0.0663,-0.05219 7.9049834,5.8479547 0 0 1 0.0675,-0.05132 7.9049834,5.8479547 0 0 1 0.0683,-0.05104 7.9049834,5.8479547 0 0 1 0.0689,-0.05017 7.9049834,5.8479547 0 0 1 0.0701,-0.0496 7.9049834,5.8479547 0 0 1 0.0707,-0.04902 7.9049834,5.8479547 0 0 1 0.0715,-0.04815 7.9049834,5.8479547 0 0 1 0.0724,-0.04758 7.9049834,5.8479547 0 0 1 0.073,-0.047 7.9049834,5.8479547 0 0 1 0.0738,-0.04643 7.9049834,5.8479547 0 0 1 0.0747,-0.04585 7.9049834,5.8479547 0 0 1 0.0756,-0.04498 7.9049834,5.8479547 0 0 1 0.0761,-0.04413 7.9049834,5.8479547 0 0 1 0.0767,-0.04354 7.9049834,5.8479547 0 0 1 0.0776,-0.04296 7.9049834,5.8479547 0 0 1 0.0784,-0.04238 7.9049834,5.8479547 0 0 1 0.079,-0.04153 7.9049834,5.8479547 0 0 1 0.0796,-0.04066 7.9049834,5.8479547 0 0 1 0.0802,-0.04008 7.9049834,5.8479547 0 0 1 0.081,-0.03921 7.9049834,5.8479547 0 0 1 0.0816,-0.03864 7.9049834,5.8479547 0 0 1 0.0825,-0.03777 7.9049834,5.8479547 0 0 1 0.0828,-0.03721 7.9049834,5.8479547 0 0 1 0.0833,-0.03634 7.9049834,5.8479547 0 0 1 0.0842,-0.03547 7.9049834,5.8479547 0 0 1 0.0848,-0.03489 7.9049834,5.8479547 0 0 1 0.0851,-0.03402 7.9049834,5.8479547 0 0 1 0.0859,-0.03316 7.9049834,5.8479547 0 0 1 0.0862,-0.03259 7.9049834,5.8479547 0 0 1 0.0868,-0.03172 7.9049834,5.8479547 0 0 1 0.0877,-0.03085 7.9049834,5.8479547 0 0 1 0.0877,-0.02999 7.9049834,5.8479547 0 0 1 0.0885,-0.02942 7.9049834,5.8479547 0 0 1 0.0888,-0.02855 7.9049834,5.8479547 0 0 1 0.0265,0.0084 7.9049834,5.8479547 0 0 1 0.0888,0.02883 7.9049834,5.8479547 0 0 1 0.0882,0.02942 7.9049834,5.8479547 0 0 1 0.0877,0.03056 7.9049834,5.8479547 0 0 1 0.0874,0.03115 7.9049834,5.8479547 0 0 1 0.0865,0.03172 7.9049834,5.8479547 0 0 1 0.0862,0.03288 7.9049834,5.8479547 0 0 1 0.0856,0.03345 7.9049834,5.8479547 0 0 1 0.0851,0.03432 7.9049834,5.8479547 0 0 1 0.0845,0.03489 7.9049834,5.8479547 0 0 1 0.0839,0.03576 7.9049834,5.8479547 0 0 1 0.0833,0.03662 7.9049834,5.8479547 0 0 1 0.0828,0.03749 7.9049834,5.8479547 0 0 1 0.0822,0.03807 7.9049834,5.8479547 0 0 1 0.0813,0.03864 7.9049834,5.8479547 0 0 1 0.0807,0.03951 7.9049834,5.8479547 0 0 1 0.0802,0.04037 7.9049834,5.8479547 0 0 1 0.0796,0.04094 7.9049834,5.8479547 0 0 1 0.0787,0.04181 7.9049834,5.8479547 0 0 1 0.0778,0.04239 7.9049834,5.8479547 0 0 1 0.0776,0.04296 7.9049834,5.8479547 0 0 1 0.0767,0.04383 7.9049834,5.8479547 0 0 1 0.0758,0.0447 7.9049834,5.8479547 0 0 1 0.0753,0.04499 7.9049834,5.8479547 0 0 1 0.0744,0.04585 7.9049834,5.8479547 0 0 1 0.0735,0.04672 7.9049834,5.8479547 0 0 1 0.073,0.047 7.9049834,5.8479547 0 0 1 0.0721,0.04787 7.9049834,5.8479547 0 0 1 0.0713,0.04873 7.9049834,5.8479547 0 0 1 0.0703,0.04902 7.9049834,5.8479547 0 0 1 0.0698,0.04989 7.9049834,5.8479547 0 0 1 0.0689,0.05046 7.9049834,5.8479547 0 0 1 0.0678,0.05104 7.9049834,5.8479547 0 0 1 0.0672,0.05162 7.9049834,5.8479547 0 0 1 0.0663,0.05219 7.9049834,5.8479547 0 0 1 0.0654,0.05277 7.9049834,5.8479547 0 0 1 0.0646,0.05363 7.9049834,5.8479547 0 0 1 0.0635,0.05392 7.9049834,5.8479547 0 0 1 0.0629,0.05451 7.9049834,5.8479547 0 0 1 0.0617,0.05536 7.9049834,5.8479547 0 0 1 0.0612,0.05565 7.9049834,5.8479547 0 0 1 0.0599,0.05623 7.9049834,5.8479547 0 0 1 0.0588,0.05681 7.9049834,5.8479547 0 0 1 0.0582,0.05738 7.9049834,5.8479547 0 0 1 0.0571,0.05768 7.9049834,5.8479547 0 0 1 0.0562,0.05854 7.9049834,5.8479547 0 0 1 0.0551,0.05882 7.9049834,5.8479547 0 0 1 0.0543,0.0594 7.9049834,5.8479547 0 0 1 0.0533,0.05969 7.9049834,5.8479547 0 0 1 0.0522,0.06056 7.9049834,5.8479547 0 0 1 0.0513,0.06085 7.9049834,5.8479547 0 0 1 0.0502,0.06113 7.9049834,5.8479547 0 0 1 0.0464,0.05825 7.3509787,7.1373057 0 0 0 2.39514,-2.255265 5.8479547,7.9049834 0 0 1 -0.0237,-0.0173 5.8479547,7.9049834 0 0 1 -0.0626,-0.04758 5.8479547,7.9049834 0 0 1 -0.062,-0.04845 5.8479547,7.9049834 0 0 1 -0.0614,-0.0496 5.8479547,7.9049834 0 0 1 -0.0612,-0.05046 5.8479547,7.9049834 0 0 1 -0.0608,-0.05162 5.8479547,7.9049834 0 0 1 -0.0599,-0.05249 5.8479547,7.9049834 0 0 1 -0.0597,-0.05363 5.8479547,7.9049834 0 0 1 -0.0594,-0.05449 5.8479547,7.9049834 0 0 1 -0.0588,-0.05536 5.8479547,7.9049834 0 0 1 -0.058,-0.05651 5.8479547,7.9049834 0 0 1 -0.058,-0.05738 5.8479547,7.9049834 0 0 1 -0.0571,-0.05854 5.8479547,7.9049834 0 0 1 -0.0565,-0.05911 5.8479547,7.9049834 0 0 1 -0.0562,-0.06027 5.8479547,7.9049834 0 0 1 -0.0554,-0.06142 5.8479547,7.9049834 0 0 1 -0.0551,-0.062 5.8479547,7.9049834 0 0 1 -0.0545,-0.06287 5.8479547,7.9049834 0 0 1 -0.0539,-0.06401 5.8479547,7.9049834 0 0 1 -0.053,-0.06489 5.8479547,7.9049834 0 0 1 -0.0528,-0.06574 5.8479547,7.9049834 0 0 1 -0.0522,-0.06633 5.8479547,7.9049834 0 0 1 -0.0513,-0.06747 5.8479547,7.9049834 0 0 1 -0.0511,-0.06834 5.8479547,7.9049834 0 0 1 -0.0502,-0.06892 5.8479547,7.9049834 0 0 1 -0.0496,-0.07007 5.8479547,7.9049834 0 0 1 -0.049,-0.07065 5.8479547,7.9049834 0 0 1 -0.0481,-0.07152 5.8479547,7.9049834 0 0 1 -0.0475,-0.07238 5.8479547,7.9049834 0 0 1 -0.047,-0.07296 5.8479547,7.9049834 0 0 1 -0.0464,-0.07382 5.8479547,7.9049834 0 0 1 -0.0458,-0.07469 5.8479547,7.9049834 0 0 1 -0.045,-0.07555 5.8479547,7.9049834 0 0 1 -0.0441,-0.07613 5.8479547,7.9049834 0 0 1 -0.0435,-0.07671 5.8479547,7.9049834 0 0 1 -0.043,-0.07757 5.8479547,7.9049834 0 0 1 -0.0424,-0.07844 5.8479547,7.9049834 0 0 1 -0.0415,-0.07901 5.8479547,7.9049834 0 0 1 -0.0407,-0.07959 5.8479547,7.9049834 0 0 1 -0.0401,-0.08017 5.8479547,7.9049834 0 0 1 -0.0393,-0.08102 5.8479547,7.9049834 0 0 1 -0.0386,-0.08161 5.8479547,7.9049834 0 0 1 -0.0378,-0.08247 5.8479547,7.9049834 0 0 1 -0.0372,-0.08276 5.8479547,7.9049834 0 0 1 -0.0363,-0.08334 5.8479547,7.9049834 0 0 1 -0.0355,-0.0842 5.8479547,7.9049834 0 0 1 -0.0349,-0.08478 5.8479547,7.9049834 0 0 1 -0.034,-0.08507 5.8479547,7.9049834 0 0 1 -0.0331,-0.08593 5.8479547,7.9049834 0 0 1 -0.0325,-0.08622 5.8479547,7.9049834 0 0 1 -0.0317,-0.0868 5.8479547,7.9049834 0 0 1 -0.0309,-0.08766 5.8479547,7.9049834 0 0 1 -0.03,-0.08766 5.8479547,7.9049834 0 0 1 -0.0294,-0.08853 5.8479547,7.9049834 0 0 1 -0.0285,-0.08882 5.8479547,7.9049834 0 0 1 0.008,-0.02595 5.8479547,7.9049834 0 0 1 0.0285,-0.08882 5.8479547,7.9049834 0 0 1 0.0297,-0.08824 5.8479547,7.9049834 0 0 1 0.0303,-0.08766 5.8479547,7.9049834 0 0 1 0.0312,-0.08737 5.8479547,7.9049834 0 0 1 0.032,-0.0868 5.8479547,7.9049834 0 0 1 0.0325,-0.08593 5.8479547,7.9049834 0 0 1 0.0335,-0.08564 5.8479547,7.9049834 0 0 1 0.0344,-0.08507 5.8479547,7.9049834 0 0 1 0.0352,-0.08449 5.8479547,7.9049834 0 0 1 0.0357,-0.08391 5.8479547,7.9049834 0 0 1 0.0366,-0.08334 5.8479547,7.9049834 0 0 1 0.0372,-0.08276 5.8479547,7.9049834 0 0 1 0.038,-0.08218 5.8479547,7.9049834 0 0 1 0.0386,-0.08132 5.8479547,7.9049834 0 0 1 0.0399,-0.08074 5.8479547,7.9049834 0 0 1 0.0401,-0.08017 5.8479547,7.9049834 0 0 1 0.0409,-0.07959 5.8479547,7.9049834 0 0 1 0.0418,-0.07872 5.8479547,7.9049834 0 0 1 0.0424,-0.07815 5.8479547,7.9049834 0 0 1 0.0432,-0.07728 5.8479547,7.9049834 0 0 1 0.0435,-0.07671 5.8479547,7.9049834 0 0 1 0.0447,-0.07584 5.8479547,7.9049834 0 0 1 0.0453,-0.07526 5.8479547,7.9049834 0 0 1 0.0459,-0.07439 5.8479547,7.9049834 0 0 1 0.0464,-0.07353 5.8479547,7.9049834 0 0 1 0.0473,-0.07296 5.8479547,7.9049834 0 0 1 0.0479,-0.07209 5.8479547,7.9049834 0 0 1 0.0485,-0.07123 5.8479547,7.9049834 0 0 1 0.049,-0.07065 5.8479547,7.9049834 0 0 1 0.0498,-0.06949 5.8479547,7.9049834 0 0 1 0.0505,-0.06891 5.8479547,7.9049834 0 0 1 0.0511,-0.06806 5.8479547,7.9049834 0 0 1 0.0517,-0.06719 5.8479547,7.9049834 0 0 1 0.0522,-0.06603 5.8479547,7.9049834 0 0 1 0.0528,-0.06546 5.8479547,7.9049834 0 0 1 0.0536,-0.0646 5.8479547,7.9049834 0 0 1 0.0539,-0.06373 5.8479547,7.9049834 0 0 1 0.0545,-0.06257 5.8479547,7.9049834 0 0 1 0.0554,-0.062 5.8479547,7.9049834 0 0 1 0.0557,-0.06085 5.8479547,7.9049834 0 0 1 0.0562,-0.05998 5.8479547,7.9049834 0 0 1 0.0568,-0.05911 5.8479547,7.9049834 0 0 1 0.0574,-0.05796 5.8479547,7.9049834 0 0 1 0.0576,-0.05738 5.8479547,7.9049834 0 0 1 0.0585,-0.05594 5.8479547,7.9049834 0 0 1 0.0588,-0.05536 5.8479547,7.9049834 0 0 1 0.0594,-0.05421 5.8479547,7.9049834 0 0 1 0.0599,-0.05335 5.8479547,7.9049834 0 0 1 0.0603,-0.05219 5.8479547,7.9049834 0 0 1 0.0609,-0.05132 5.8479547,7.9049834 0 0 1 0.0612,-0.05017 5.8479547,7.9049834 0 0 1 0.0617,-0.04932 5.8479547,7.9049834 0 0 1 0.0623,-0.04816 5.8479547,7.9049834 0 0 1 0.0626,-0.047 5.8479547,7.9049834 0 0 1 0.0331,-0.02451 7.3509787,7.1373057 0 0 0 -2.66216,-2.431166 7.9049834,5.8479547 0 0 1 -0.0528,0.05132 7.9049834,5.8479547 0 0 1 -0.0591,0.05651 7.9049834,5.8479547 0 0 1 -0.0603,0.05623 7.9049834,5.8479547 0 0 1 -0.0614,0.05536 7.9049834,5.8479547 0 0 1 -0.062,0.05508 7.9049834,5.8479547 0 0 1 -0.0629,0.05449 7.9049834,5.8479547 0 0 1 -0.064,0.05392 7.9049834,5.8479547 0 0 1 -0.0648,0.05306 7.9049834,5.8479547 0 0 1 -0.0658,0.05277 7.9049834,5.8479547 0 0 1 -0.0663,0.05219 7.9049834,5.8479547 0 0 1 -0.0675,0.05132 7.9049834,5.8479547 0 0 1 -0.0684,0.05104 7.9049834,5.8479547 0 0 1 -0.0689,0.05018 7.9049834,5.8479547 0 0 1 -0.0701,0.0496 7.9049834,5.8479547 0 0 1 -0.0707,0.04902 7.9049834,5.8479547 0 0 1 -0.0715,0.04815 7.9049834,5.8479547 0 0 1 -0.0724,0.04758 7.9049834,5.8479547 0 0 1 -0.073,0.047 7.9049834,5.8479547 0 0 1 -0.0738,0.04643 7.9049834,5.8479547 0 0 1 -0.0747,0.04585 7.9049834,5.8479547 0 0 1 -0.0756,0.04499 7.9049834,5.8479547 0 0 1 -0.0761,0.04412 7.9049834,5.8479547 0 0 1 -0.0767,0.04354 7.9049834,5.8479547 0 0 1 -0.0776,0.04296 7.9049834,5.8479547 0 0 1 -0.0784,0.04239 7.9049834,5.8479547 0 0 1 -0.079,0.04153 7.9049834,5.8479547 0 0 1 -0.0796,0.04066 7.9049834,5.8479547 0 0 1 -0.0802,0.04008 7.9049834,5.8479547 0 0 1 -0.081,0.03921 7.9049834,5.8479547 0 0 1 -0.0816,0.03864 7.9049834,5.8479547 0 0 1 -0.0825,0.03778 7.9049834,5.8479547 0 0 1 -0.0828,0.0372 7.9049834,5.8479547 0 0 1 -0.0833,0.03634 7.9049834,5.8479547 0 0 1 -0.0842,0.03546 7.9049834,5.8479547 0 0 1 -0.0848,0.03489 7.9049834,5.8479547 0 0 1 -0.0851,0.03402 7.9049834,5.8479547 0 0 1 -0.0859,0.03316 7.9049834,5.8479547 0 0 1 -0.0862,0.03259 7.9049834,5.8479547 0 0 1 -0.0868,0.03172 7.9049834,5.8479547 0 0 1 -0.0877,0.03085 7.9049834,5.8479547 0 0 1 -0.0877,0.02999 7.9049834,5.8479547 0 0 1 -0.0885,0.02941 7.9049834,5.8479547 0 0 1 -0.0888,0.02855 7.9049834,5.8479547 0 0 1 -0.026,-0.0084 7.9049834,5.8479547 0 0 1 -0.0888,-0.02855 7.9049834,5.8479547 0 0 1 -0.0882,-0.0297 7.9049834,5.8479547 0 0 1 -0.0877,-0.03028 7.9049834,5.8479547 0 0 1 -0.0874,-0.03115 7.9049834,5.8479547 0 0 1 -0.0868,-0.03201 7.9049834,5.8479547 0 0 1 -0.0859,-0.03259 7.9049834,5.8479547 0 0 1 -0.0856,-0.03345 7.9049834,5.8479547 0 0 1 -0.0851,-0.03432 7.9049834,5.8479547 0 0 1 -0.0845,-0.03518 7.9049834,5.8479547 0 0 1 -0.0839,-0.03575 7.9049834,5.8479547 0 0 1 -0.0833,-0.03662 7.9049834,5.8479547 0 0 1 -0.0828,-0.0372 7.9049834,5.8479547 0 0 1 -0.0822,-0.03807 7.9049834,5.8479547 0 0 1 -0.0813,-0.03864 7.9049834,5.8479547 0 0 1 -0.0807,-0.03979 7.9049834,5.8479547 0 0 1 -0.0802,-0.04008 7.9049834,5.8479547 0 0 1 -0.0796,-0.04094 7.9049834,5.8479547 0 0 1 -0.0787,-0.04181 7.9049834,5.8479547 0 0 1 -0.0781,-0.04239 7.9049834,5.8479547 0 0 1 -0.0773,-0.04326 7.9049834,5.8479547 0 0 1 -0.0767,-0.04354 7.9049834,5.8479547 0 0 1 -0.0758,-0.0447 7.9049834,5.8479547 0 0 1 -0.0753,-0.04527 7.9049834,5.8479547 0 0 1 -0.0744,-0.04585 7.9049834,5.8479547 0 0 1 -0.0735,-0.04643 7.9049834,5.8479547 0 0 1 -0.073,-0.04729 7.9049834,5.8479547 0 0 1 -0.0721,-0.04787 7.9049834,5.8479547 0 0 1 -0.0712,-0.04844 7.9049834,5.8479547 0 0 1 -0.0707,-0.04902 7.9049834,5.8479547 0 0 1 -0.0695,-0.04989 7.9049834,5.8479547 0 0 1 -0.0689,-0.05046 7.9049834,5.8479547 0 0 1 -0.0681,-0.05104 7.9049834,5.8479547 0 0 1 -0.0672,-0.05162 7.9049834,5.8479547 0 0 1 -0.066,-0.05219 7.9049834,5.8479547 0 0 1 -0.0655,-0.05277 7.9049834,5.8479547 0 0 1 -0.0646,-0.05364 7.9049834,5.8479547 0 0 1 -0.0637,-0.05392 7.9049834,5.8479547 0 0 1 -0.0626,-0.05451 7.9049834,5.8479547 0 0 1 -0.062,-0.05536 7.9049834,5.8479547 0 0 1 -0.0609,-0.05565 7.9049834,5.8479547 0 0 1 -0.06,-0.05623 7.9049834,5.8479547 0 0 1 -0.0591,-0.05681 7.9049834,5.8479547 0 0 1 -0.058,-0.05738 7.9049834,5.8479547 0 0 1 -0.0574,-0.05768 7.9049834,5.8479547 0 0 1 -0.0559,-0.05854 7.9049834,5.8479547 0 0 1 -0.0554,-0.05882 7.9049834,5.8479547 0 0 1 -0.0133,-0.01442 z" />
    <path
       id="path883"
       style="fill:#008000;fill-opacity:1;stroke:#004701;stroke-width:0.793817;stroke-linecap:round;stroke-linejoin:round;stroke-miterlimit:4;stroke-dasharray:none;stroke-opacity:1;paint-order:markers fill stroke"
       d="m 103.86464,50.751463 a 7.9049834,5.8479547 0 0 0 0.0133,0.01442 7.9049834,5.8479547 0 0 0 0.0554,0.05882 7.9049834,5.8479547 0 0 0 0.0559,0.05854 7.9049834,5.8479547 0 0 0 0.0574,0.05768 7.9049834,5.8479547 0 0 0 0.058,0.05738 7.9049834,5.8479547 0 0 0 0.0591,0.05681 7.9049834,5.8479547 0 0 0 0.06,0.05623 7.9049834,5.8479547 0 0 0 0.0609,0.05565 7.9049834,5.8479547 0 0 0 0.062,0.05536 7.9049834,5.8479547 0 0 0 0.0626,0.05451 7.9049834,5.8479547 0 0 0 0.0637,0.05392 7.9049834,5.8479547 0 0 0 0.0646,0.05364 7.9049834,5.8479547 0 0 0 0.0655,0.05277 7.9049834,5.8479547 0 0 0 0.066,0.05219 7.9049834,5.8479547 0 0 0 0.0672,0.05162 7.9049834,5.8479547 0 0 0 0.0681,0.05104 7.9049834,5.8479547 0 0 0 0.0689,0.05046 7.9049834,5.8479547 0 0 0 0.0695,0.04989 7.9049834,5.8479547 0 0 0 0.0707,0.04902 7.9049834,5.8479547 0 0 0 0.0712,0.04844 7.9049834,5.8479547 0 0 0 0.0721,0.04787 7.9049834,5.8479547 0 0 0 0.073,0.04729 7.9049834,5.8479547 0 0 0 0.0735,0.04643 7.9049834,5.8479547 0 0 0 0.0744,0.04585 7.9049834,5.8479547 0 0 0 0.0753,0.04527 7.9049834,5.8479547 0 0 0 0.0758,0.0447 7.9049834,5.8479547 0 0 0 0.0767,0.04354 7.9049834,5.8479547 0 0 0 0.0773,0.04326 7.9049834,5.8479547 0 0 0 0.0782,0.04239 7.9049834,5.8479547 0 0 0 0.0787,0.04181 7.9049834,5.8479547 0 0 0 0.0796,0.04095 7.9049834,5.8479547 0 0 0 0.0802,0.04008 7.9049834,5.8479547 0 0 0 0.0807,0.03979 7.9049834,5.8479547 0 0 0 0.0813,0.03864 7.9049834,5.8479547 0 0 0 0.0822,0.03807 7.9049834,5.8479547 0 0 0 0.0828,0.0372 7.9049834,5.8479547 0 0 0 0.0833,0.03662 7.9049834,5.8479547 0 0 0 0.0839,0.03575 7.9049834,5.8479547 0 0 0 0.0845,0.03518 7.9049834,5.8479547 0 0 0 0.0851,0.03432 7.9049834,5.8479547 0 0 0 0.0856,0.03345 7.9049834,5.8479547 0 0 0 0.0859,0.03259 7.9049834,5.8479547 0 0 0 0.0868,0.03201 7.9049834,5.8479547 0 0 0 0.0874,0.03115 7.9049834,5.8479547 0 0 0 0.0877,0.03028 7.9049834,5.8479547 0 0 0 0.0882,0.0297 7.9049834,5.8479547 0 0 0 0.0888,0.02855 7.9049834,5.8479547 0 0 0 0.026,0.0084 7.9049834,5.8479547 0 0 0 0.0888,-0.02855 7.9049834,5.8479547 0 0 0 0.0885,-0.0294 7.9049834,5.8479547 0 0 0 0.0877,-0.02999 7.9049834,5.8479547 0 0 0 0.0877,-0.03085 7.9049834,5.8479547 0 0 0 0.0868,-0.03172 7.9049834,5.8479547 0 0 0 0.0862,-0.03259 7.9049834,5.8479547 0 0 0 0.0859,-0.03316 7.9049834,5.8479547 0 0 0 0.0851,-0.03402 7.9049834,5.8479547 0 0 0 0.0848,-0.03489 7.9049834,5.8479547 0 0 0 0.0842,-0.03546 7.9049834,5.8479547 0 0 0 0.0833,-0.03634 7.9049834,5.8479547 0 0 0 0.0828,-0.0372 7.9049834,5.8479547 0 0 0 0.0825,-0.03777 7.9049834,5.8479547 0 0 0 0.0816,-0.03864 7.9049834,5.8479547 0 0 0 0.081,-0.03921 7.9049834,5.8479547 0 0 0 0.0802,-0.04008 7.9049834,5.8479547 0 0 0 0.0796,-0.04066 7.9049834,5.8479547 0 0 0 0.079,-0.04153 7.9049834,5.8479547 0 0 0 0.0784,-0.04239 7.9049834,5.8479547 0 0 0 0.0776,-0.04296 7.9049834,5.8479547 0 0 0 0.0767,-0.04354 7.9049834,5.8479547 0 0 0 0.0761,-0.04413 7.9049834,5.8479547 0 0 0 0.0756,-0.04498 7.9049834,5.8479547 0 0 0 0.0747,-0.04585 7.9049834,5.8479547 0 0 0 0.0738,-0.04643 7.9049834,5.8479547 0 0 0 0.073,-0.047 7.9049834,5.8479547 0 0 0 0.0724,-0.04757 7.9049834,5.8479547 0 0 0 0.0715,-0.04815 7.9049834,5.8479547 0 0 0 0.0707,-0.04902 7.9049834,5.8479547 0 0 0 0.0701,-0.0496 7.9049834,5.8479547 0 0 0 0.0689,-0.05018 7.9049834,5.8479547 0 0 0 0.0684,-0.05104 7.9049834,5.8479547 0 0 0 0.0675,-0.05132 7.9049834,5.8479547 0 0 0 0.0663,-0.05219 7.9049834,5.8479547 0 0 0 0.0657,-0.05277 7.9049834,5.8479547 0 0 0 0.0648,-0.05306 7.9049834,5.8479547 0 0 0 0.064,-0.05392 7.9049834,5.8479547 0 0 0 0.0629,-0.05449 7.9049834,5.8479547 0 0 0 0.062,-0.05508 7.9049834,5.8479547 0 0 0 0.0614,-0.05536 7.9049834,5.8479547 0 0 0 0.0603,-0.05623 7.9049834,5.8479547 0 0 0 0.0591,-0.05651 7.9049834,5.8479547 0 0 0 0.0528,-0.05133 7.3509787,7.1373057 0 0 0 -3.54741,-0.886131 7.3509787,7.1373057 0 0 0 -3.11746,0.673898 z" />
    <circle
       style="fill:#0ab40a;fill-opacity:1;stroke:#004701;stroke-width:0.720391;stroke-linecap:round;stroke-linejoin:round;stroke-miterlimit:4;stroke-dasharray:none;stroke-opacity:1;paint-order:markers fill stroke"
       id="path892"
       cx="107.05807"
       cy="57.173218"
       r="1.7827327" />
  </g>
</svg>
